<svg xmlns="http://www.w3.org/2000/svg" width="71.516" height="80.552" viewBox="0 0 71.516 80.552">
  <g id="Group_373" data-name="Group 373" transform="translate(-176.001 -348.448)">
    <g id="Group_112" data-name="Group 112" transform="translate(177 350.448)">
      <g id="Group_2" data-name="Group 2" transform="translate(0 0)">
        <path id="Path_18" data-name="Path 18" d="M162.117,250.921H115.726a7.189,7.189,0,0,0-.824.019,1.215,1.215,0,0,0-.129,2.394,4.681,4.681,0,0,0,.957.061q22.7,0,45.408,0h.979a4.129,4.129,0,0,1,.065.514c-.008,1.927.064,3.859-.054,5.779a6.843,6.843,0,0,1-7.4,6.232c-.123-.011-.246-.025-.368-.042-1-5.048-3.586-7.626-7.726-7.667a7.485,7.485,0,0,0-5.517,2.236A7.731,7.731,0,0,0,138.8,265.9H115.2a7.852,7.852,0,0,0-3.081-6.109,7.729,7.729,0,0,0-10.166.7,7.908,7.908,0,0,0-2.278,5.554,20.607,20.607,0,0,1-2.5-.554,6.672,6.672,0,0,1-4.461-6.335c-.045-7.73-.064-15.462,0-23.192a6.754,6.754,0,0,1,6.591-6.911q.249-.006.5.007,22.463-.015,44.926-.011a5.433,5.433,0,0,1,5,3.173q3.619,6.559,7.168,13.157a1.12,1.12,0,0,0,1.037.679,4.231,4.231,0,0,1,4.228,4.235A4.153,4.153,0,0,1,162.117,250.921ZM142.5,246.838c2.659,0,5.32,0,7.979,0,.923,0,1.285-.559.878-1.334-2.051-3.891-4.113-7.775-6.153-11.671a1.142,1.142,0,0,0-1.152-.671c-3.141.015-6.283,0-9.424.009-.86,0-1.115.255-1.116,1.1q-.006,5.71,0,11.423c0,.883.265,1.144,1.147,1.146Zm-27.857-13.087H110.43v4.166h-4.149v4.192h4.174v4.126h4.212v-4.149h4.1v-4.212h-4.12Zm-9.08,17.17c-1.467,0-2.935-.007-4.4,0-.9,0-1.442.466-1.458,1.2-.017.753.558,1.267,1.474,1.27q4.332.012,8.665,0a1.252,1.252,0,0,0,1.416-1.251c0-.747-.538-1.213-1.433-1.218-1.425-.009-2.846,0-4.267,0Z" transform="translate(-92.676 -213.97)" fill="none" stroke="#0d8f9f" stroke-miterlimit="10" stroke-width="2"/>
        <path id="Path_21" data-name="Path 21" d="M150.28,225.187h-4.617a1.022,1.022,0,0,1-1.035-1.121,3.356,3.356,0,0,1,1.3-2.231,3.148,3.148,0,0,1,3.672-.272,3.367,3.367,0,0,1,1.713,2.462A1.034,1.034,0,0,1,150.28,225.187Z" transform="translate(-101.522 -212.617)" fill="none" stroke="#0d8f9f" stroke-miterlimit="10" stroke-width="2"/>
        <g id="Path_22" data-name="Path 22" transform="translate(-102.001 -210.876)" fill="none" stroke-miterlimit="10">
          <path d="M148.449,210.876h0a1.016,1.016,0,0,1,1.016,1.016v2.444a1.016,1.016,0,0,1-1.016,1.016h0a1.017,1.017,0,0,1-1.016-1.016v-2.444A1.016,1.016,0,0,1,148.449,210.876Z" stroke="none"/>
          <path d="M 148.4494018554688 210.8760070800781 C 147.8885040283203 210.8760070800781 147.4329986572266 211.3306884765625 147.4329986572266 211.8923950195312 L 147.4329986572266 214.3359069824219 C 147.4329986572266 214.8967895507812 147.8885040283203 215.352294921875 148.4494018554688 215.352294921875 C 149.0111236572266 215.352294921875 149.4657897949219 214.8967895507812 149.4657897949219 214.3359069824219 L 149.4657897949219 211.8923950195312 C 149.4657897949219 211.3306884765625 149.0111236572266 210.8760070800781 148.4494018554688 210.8760070800781 M 148.4494018554688 208.8760070800781 C 150.1126403808594 208.8760070800781 151.4657897949219 210.2291564941406 151.4657897949219 211.8923950195312 L 151.4657897949219 214.3359069824219 C 151.4657897949219 215.9991455078125 150.1126403808594 217.352294921875 148.4494018554688 217.352294921875 C 146.7861480712891 217.352294921875 145.4329986572266 215.9991455078125 145.4329986572266 214.3359069824219 L 145.4329986572266 211.8923950195312 C 145.4329986572266 210.2291564941406 146.7861480712891 208.8760070800781 148.4494018554688 208.8760070800781 Z" stroke="none" fill="#0d8f9f"/>
        </g>
        <g id="Path_23" data-name="Path 23" transform="translate(-103.431 -211.759)" fill="none" stroke-miterlimit="10">
          <path d="M156.364,217.411l2.128-1.212a1.051,1.051,0,0,1,1.431.388h0a1.051,1.051,0,0,1-.39,1.44l-2.128,1.213a1.052,1.052,0,0,1-1.435-.393v0A1.051,1.051,0,0,1,156.364,217.411Z" stroke="none"/>
          <path d="M 159.0116271972656 216.0607147216797 C 158.8351745605469 216.0607147216797 158.6562805175781 216.1051788330078 158.4920349121094 216.1986846923828 L 156.3638305664062 217.4109039306641 C 155.8585510253906 217.6979675292969 155.6826477050781 218.3401794433594 155.9697265625 218.8446350097656 L 155.9705505371094 218.8462982177734 C 156.2576141357422 219.3507537841797 156.900634765625 219.5275421142578 157.4051208496094 219.2395782470703 L 159.5333251953125 218.0265350341797 C 160.040283203125 217.7378082275391 160.2153625488281 217.09228515625 159.9233093261719 216.5870056152344 C 159.7288818359375 216.2495574951172 159.3753662109375 216.0607147216797 159.0116271972656 216.0607147216797 M 159.0116424560547 214.0607147216797 C 160.0998992919922 214.0607147216797 161.1132354736328 214.6461334228516 161.6562194824219 215.5885162353516 C 162.0646209716797 216.2950439453125 162.1724243164062 217.1205749511719 161.9584350585938 217.9106750488281 C 161.7444305419922 218.7008361816406 161.2346801757812 219.3591918945312 160.5231018066406 219.7644500732422 L 158.3955078125 220.9771423339844 C 157.9366302490234 221.2390441894531 157.4141998291016 221.3777770996094 156.8856506347656 221.3777770996094 C 155.7903289794922 221.3777770996094 154.7736206054688 220.7867736816406 154.2322692871094 219.8354339599609 L 154.1975250244141 219.7725830078125 C 153.8227233886719 219.0783081054688 153.7314147949219 218.2800598144531 153.9410247802734 217.5166778564453 C 154.1570281982422 216.7300567626953 154.6665954589844 216.0749359130859 155.3758697509766 215.6719665527344 L 157.5021514892578 214.4608306884766 C 157.9621276855469 214.1989898681641 158.4839324951172 214.0607147216797 159.0116424560547 214.0607147216797 Z" stroke="none" fill="#0d8f9f"/>
        </g>
        <g id="Path_24" data-name="Path 24" transform="translate(-100.12 -211.759)" fill="none" stroke-miterlimit="10">
          <path d="M140.486,218.841h0a1.053,1.053,0,0,1-1.434.4l-2.132-1.21a1.052,1.052,0,0,1-.4-1.432h0a1.052,1.052,0,0,1,1.435-.4l2.132,1.209A1.051,1.051,0,0,1,140.486,218.841Z" stroke="none"/>
          <path d="M 139.5695037841797 219.3747406005859 C 139.93603515625 219.3747406005859 140.2921295166016 219.1831207275391 140.4856109619141 218.8421478271484 L 140.4856109619141 218.8413238525391 C 140.7735137939453 218.3360137939453 140.5959777832031 217.6929931640625 140.08984375 217.4067535400391 L 137.9574737548828 216.1978607177734 C 137.4513549804688 215.9107818603516 136.8083190917969 216.0891723632812 136.5220794677734 216.5961151123047 C 136.2366485595703 217.1014099121094 136.4150543212891 217.7419586181641 136.9195251464844 218.0282135009766 L 139.0518646240234 219.2379150390625 C 139.2156219482422 219.3306884765625 139.3937683105469 219.3747406005859 139.5695037841797 219.3747406005859 M 139.5695037841797 221.374755859375 C 139.0440368652344 221.374755859375 138.524169921875 221.2375946044922 138.0661010742188 220.9781036376953 L 135.9326477050781 219.7677764892578 C 134.471435546875 218.9386291503906 133.9547576904297 217.0746002197266 134.7807159423828 215.6124420166016 C 135.3210906982422 214.6554412841797 136.3399658203125 214.0607452392578 137.4395294189453 214.0607452392578 C 137.9654541015625 214.0607452392578 138.4857635498047 214.1981811523438 138.9441986083984 214.4582061767578 L 141.0762176513672 215.6669006347656 C 141.7852630615234 216.0678863525391 142.29638671875 216.7229156494141 142.5135345458984 217.51025390625 C 142.6717224121094 218.0837860107422 142.6599578857422 218.6770477294922 142.4856109619141 219.2312164306641 L 142.4856109619141 219.3692321777344 L 142.2250823974609 219.8291931152344 C 141.6841278076172 220.7825317382812 140.6665649414062 221.374755859375 139.5695037841797 221.374755859375 Z" stroke="none" fill="#0d8f9f"/>
        </g>
        <path id="Path_178" data-name="Path 178" d="M156.351,266.189a6.073,6.073,0,1,0,6.092,6.054A6.073,6.073,0,0,0,156.351,266.189Zm.163,10.615c-.058,0-.116,0-.174,0a4.551,4.551,0,0,1-4.539-4.449,4.657,4.657,0,0,1,4.532-4.66,4.551,4.551,0,0,1,4.572,4.53v.043A4.465,4.465,0,0,1,156.515,276.8Z" transform="translate(-102.489 -220.295)" fill="#0d8f9f"/>
        <path id="Path_179" data-name="Path 179" d="M109.136,266.189a6.073,6.073,0,1,0,6.092,6.054A6.072,6.072,0,0,0,109.136,266.189ZM109.3,276.8c-.058,0-.116,0-.174,0a4.551,4.551,0,0,1-4.539-4.449,4.657,4.657,0,0,1,4.532-4.66,4.551,4.551,0,0,1,4.572,4.53v.043A4.464,4.464,0,0,1,109.3,276.8Z" transform="translate(-94.448 -220.295)" fill="#0d8f9f"/>
      </g>
    </g>
    <text id="Ambulance" transform="translate(212 425)" fill="#707070" font-size="14" font-family="SegoeUI, Segoe UI"><tspan x="-34.733" y="0">Ambulance</tspan></text>
  </g>
</svg>
