<svg xmlns="http://www.w3.org/2000/svg" xmlns:xlink="http://www.w3.org/1999/xlink" width="80" height="80" viewBox="0 0 80 80">
  <defs>
    <filter id="Icon" x="24.499" y="24.982" width="31.001" height="31.001" filterUnits="userSpaceOnUse">
      <feOffset dy="3" input="SourceAlpha"/>
      <feGaussianBlur stdDeviation="3" result="blur"/>
      <feFlood flood-opacity="0.161"/>
      <feComposite operator="in" in2="blur"/>
      <feComposite in="SourceGraphic"/>
    </filter>
    <radialGradient id="radial-gradient" cx="0.206" cy="0.123" r="4.195" gradientTransform="matrix(0.965, -0.263, 0.103, 0.376, -0.005, 0.131)" gradientUnits="objectBoundingBox">
      <stop offset="0" stop-color="#ff6896"/>
      <stop offset="1" stop-color="#2e166e"/>
    </radialGradient>
    <filter id="Ellipse_14" x="0" y="0" width="80" height="80" filterUnits="userSpaceOnUse">
      <feOffset dy="3" input="SourceAlpha"/>
      <feGaussianBlur stdDeviation="3" result="blur-2"/>
      <feFlood flood-opacity="0.161"/>
      <feComposite operator="in" in2="blur-2"/>
      <feComposite in="SourceGraphic"/>
    </filter>
    <filter id="Icon-2" x="24.499" y="24.982" width="31.001" height="31.001" filterUnits="userSpaceOnUse">
      <feOffset dy="3" input="SourceAlpha"/>
      <feGaussianBlur stdDeviation="3" result="blur-3"/>
      <feFlood flood-opacity="0.161"/>
      <feComposite operator="in" in2="blur-3"/>
      <feComposite in="SourceGraphic"/>
    </filter>
    <clipPath id="clip-path">
      <g transform="matrix(1, 0, 0, 1, 0, 0)" filter="url(#Icon)">
        <path id="Icon-3" data-name="Icon" d="M1.043,5.251A7.111,7.111,0,0,1,0,2.034C0,1.288.183,1.075.369.9S1.392.213,1.535.117A.76.76,0,0,1,2.564.324c.342.491.985,1.478,1.429,2.134.7.929.142,1.336-.038,1.58-.33.45-.519.56-.519,1.112s1.543,2.12,1.912,2.507a9.492,9.492,0,0,0,2.38,1.8A1.988,1.988,0,0,0,8.986,8.9c.695-.533,1.087-.129,1.407.047s1.765,1.076,2.213,1.38a.951.951,0,0,1,.4.773s-.87,1.38-.975,1.546c-.132.193-.448.359-1.159.359a6.383,6.383,0,0,1-3.278-1.123A17.421,17.421,0,0,1,3.963,9.046,18.015,18.015,0,0,1,1.043,5.251Z" transform="translate(0 0)" fill="#fff"/>
      </g>
    </clipPath>
  </defs>
  <g id="Group_393" data-name="Group 393" transform="translate(-12060 -7727)">
    <g transform="matrix(1, 0, 0, 1, 12060, 7727)" filter="url(#Ellipse_14)">
      <circle id="Ellipse_14-2" data-name="Ellipse 14" cx="31" cy="31" r="31" transform="translate(9 6)" fill="url(#radial-gradient)"/>
    </g>
    <g id="Group_392" data-name="Group 392" transform="translate(0 1)">
      <g id="Group_391" data-name="Group 391" transform="translate(12080.349 7739.643)">
        <path id="Path_88" data-name="Path 88" d="M668.975,194.83h.5c1.582,0,3.164,0,4.746,0a1.5,1.5,0,0,1,1.627,1.465,1.469,1.469,0,0,1-1.567,1.476c-1.486.024-2.973.005-4.459.005H645.765q-3.743,0-7.486,0a2.489,2.489,0,0,1-.764-.1,1.491,1.491,0,0,1-.953-1.631,1.459,1.459,0,0,1,1.369-1.2c1.309-.032,2.618-.017,3.927-.021.515,0,1.03,0,1.575,0v-.53c0-4.72-.016-9.441,0-14.162a12.752,12.752,0,0,1,25.286-2.411,16.345,16.345,0,0,1,.241,2.724c.024,4.611.012,9.223.012,13.834ZM666,194.808a1.75,1.75,0,0,0,.024-.193c0-5.006.01-10.013-.018-15.02a8.32,8.32,0,0,0-1.087-4.029,9.612,9.612,0,0,0-9.184-5.28,9.182,9.182,0,0,0-5.77,2.2,9.554,9.554,0,0,0-3.587,7.7q0,7.121,0,14.243c0,.119.012.238.02.378Z" transform="translate(-636.547 -157.815)" fill="#f1fffb"/>
        <path id="Path_89" data-name="Path 89" d="M686.249,167.8a1.573,1.573,0,0,1-1.337-.9,1.376,1.376,0,0,1,.224-1.6q1.646-1.7,3.351-3.352a1.461,1.461,0,0,1,2.078,2.043c-1.109,1.163-2.252,2.294-3.413,3.4A3.04,3.04,0,0,1,686.249,167.8Z" transform="translate(-655.398 -155.58)" fill="#f1fffb"/>
        <path id="Path_90" data-name="Path 90" d="M669.214,155.453c0,.736.006,1.471,0,2.208a1.472,1.472,0,1,1-2.942.024q-.015-2.228,0-4.455a1.472,1.472,0,1,1,2.942.017C669.221,153.982,669.214,154.718,669.214,155.453Z" transform="translate(-648.167 -151.729)" fill="#f1fffb"/>
        <path id="Path_91" data-name="Path 91" d="M647.316,167.76a4.584,4.584,0,0,1-1-.56c-1.047-1-2.059-2.028-3.074-3.058a1.47,1.47,0,1,1,2.078-2.078q1.557,1.537,3.095,3.1a1.428,1.428,0,0,1,.311,1.625,1.4,1.4,0,0,1-1.358.87Z" transform="translate(-638.987 -155.59)" fill="#f1fffb"/>
      </g>
      <g id="Glyphs_Tab_Bar_Calls" data-name="Glyphs/Tab Bar/Calls" transform="translate(12093.499 7756.982)">
        <g id="Group_98" data-name="Group 98" transform="translate(0 0)">
          <g transform="matrix(1, 0, 0, 1, -33.5, -30.98)" filter="url(#Icon-2)">
            <path id="Icon-4" data-name="Icon" d="M1.043,5.251A7.111,7.111,0,0,1,0,2.034C0,1.288.183,1.075.369.9S1.392.213,1.535.117A.76.76,0,0,1,2.564.324c.342.491.985,1.478,1.429,2.134.7.929.142,1.336-.038,1.58-.33.45-.519.56-.519,1.112s1.543,2.12,1.912,2.507a9.492,9.492,0,0,0,2.38,1.8A1.988,1.988,0,0,0,8.986,8.9c.695-.533,1.087-.129,1.407.047s1.765,1.076,2.213,1.38a.951.951,0,0,1,.4.773s-.87,1.38-.975,1.546c-.132.193-.448.359-1.159.359a6.383,6.383,0,0,1-3.278-1.123A17.421,17.421,0,0,1,3.963,9.046,18.015,18.015,0,0,1,1.043,5.251Z" transform="translate(33.5 30.98)" fill="#fff"/>
          </g>
        </g>
      </g>
    </g>
  </g>
</svg>
