<svg xmlns="http://www.w3.org/2000/svg" width="79.473" height="85.353" viewBox="0 0 79.473 85.353">
  <g id="Group_367" data-name="Group 367" transform="translate(-13256 -8806.647)">
    <g id="Group_25" data-name="Group 25" transform="translate(12250.711 8385.078)">
      <g id="Path_128" data-name="Path 128" fill="none" stroke-miterlimit="10">
        <path d="M1044.819,462.332h-15.493c-1.469,0-1.967-.672-1.532-2.054q2.578-8.162,5.155-16.326a3.147,3.147,0,0,1,3.4-2.505H1053.5a3.133,3.133,0,0,1,3.355,2.465q2.58,8.162,5.156,16.325c.453,1.436-.033,2.094-1.551,2.1Z" stroke="none"/>
        <path d="M 1059.944702148438 460.3320007324219 L 1059.851806640625 460.0379333496094 C 1058.218139648438 454.8632507324219 1056.584594726562 449.6885986328125 1054.948974609375 444.5148315429688 L 1054.919921875 444.4230041503906 L 1054.89990234375 444.3288269042969 C 1054.789306640625 443.8099670410156 1054.324096679688 443.4333801269531 1053.793823242188 443.4333801269531 C 1053.758178710938 443.4333801269531 1053.721923828125 443.4350891113281 1053.685913085938 443.4384155273438 L 1053.593627929688 443.4469909667969 L 1036.247924804688 443.4469909667969 L 1036.147338867188 443.4367980957031 C 1036.108032226562 443.4328308105469 1036.068359375 443.4308166503906 1036.029418945312 443.4308166503906 C 1035.488525390625 443.4308166503906 1035.017211914062 443.8175659179688 1034.908935546875 444.3504333496094 L 1034.887939453125 444.45361328125 L 1034.856201171875 444.5539855957031 C 1033.195678710938 449.8147583007812 1031.53515625 455.0749816894531 1029.874267578125 460.3320007324219 L 1059.944702148438 460.3320007324219 M 1060.461059570312 462.3320007324219 L 1029.326049804688 462.3320007324219 C 1027.857055664062 462.3320007324219 1027.359008789062 461.6600036621094 1027.7939453125 460.2780151367188 C 1029.512939453125 454.8370056152344 1031.23095703125 449.3949890136719 1032.948974609375 443.9519958496094 C 1033.27099609375 442.3680419921875 1034.740600585938 441.2840270996094 1036.348999023438 441.4469909667969 L 1053.5009765625 441.4469909667969 C 1055.081909179688 441.3000183105469 1056.525024414062 442.3589782714844 1056.85595703125 443.9119873046875 C 1058.576049804688 449.3529968261719 1060.2939453125 454.7950134277344 1062.011962890625 460.2369995117188 C 1062.464965820312 461.6730041503906 1061.97900390625 462.3309936523438 1060.461059570312 462.3320007324219 Z" stroke="none" fill="#0d8f9f"/>
      </g>
      <g id="Path_129" data-name="Path 129" fill="none" stroke-miterlimit="10">
        <path d="M1027.012,484.1c-5.168,0-10.337-.039-15.5.025-1.48.018-1.984-.9-1.569-2.162,1.771-5.378,3.431-10.791,5.134-16.191a3.125,3.125,0,0,1,3.454-2.517h17.018a3.114,3.114,0,0,1,3.475,2.577q2.565,8.1,5.126,16.193c.46,1.453-.006,2.074-1.559,2.075Z" stroke="none"/>
        <path d="M 1011.996887207031 482.1171569824219 C 1013.892150878906 482.0960998535156 1015.974426269531 482.0862121582031 1018.495971679688 482.0862121582031 C 1019.916931152344 482.0862121582031 1021.361083984375 482.0892028808594 1022.757690429688 482.0921020507812 C 1024.152465820312 482.0950012207031 1025.5947265625 482.0979919433594 1027.011962890625 482.0979919433594 L 1042.076049804688 482.0979919433594 C 1040.424682617188 476.8790893554688 1038.771484375 471.6573181152344 1037.117309570312 466.4337463378906 L 1037.074462890625 466.2982482910156 L 1037.051147460938 466.1580505371094 C 1036.96142578125 465.6182861328125 1036.50048828125 465.2265319824219 1035.955322265625 465.2265319824219 C 1035.906494140625 465.2265319824219 1035.856811523438 465.2297668457031 1035.8076171875 465.2362060546875 L 1035.678833007812 465.2529907226562 L 1018.407348632812 465.2529907226562 L 1018.284606933594 465.2377624511719 C 1018.237365722656 465.2319030761719 1018.189758300781 465.2289123535156 1018.143005371094 465.2289123535156 C 1017.605834960938 465.2289123535156 1017.142700195312 465.6137390136719 1017.041748046875 466.1439819335938 L 1017.019775390625 466.2594299316406 L 1016.984436035156 466.3715209960938 C 1016.510986328125 467.8728332519531 1016.032592773438 469.4013366699219 1015.570007324219 470.8795166015625 C 1014.416259765625 474.5662536621094 1013.224731445312 478.3736877441406 1011.996887207031 482.1171569824219 M 1011.469482421875 484.1232604980469 C 1010.022338867188 484.1232604980469 1009.532043457031 483.2108154296875 1009.942993164062 481.9609985351562 C 1011.713989257812 476.5830078125 1013.3740234375 471.1700134277344 1015.077026367188 465.7699890136719 C 1015.385070800781 464.1519775390625 1016.896545410156 463.0502624511719 1018.531005859375 463.2529907226562 L 1035.548950195312 463.2529907226562 C 1037.212280273438 463.0361022949219 1038.7490234375 464.1759948730469 1039.024047851562 465.8299865722656 C 1040.734008789062 471.2300109863281 1042.442993164062 476.6279907226562 1044.150024414062 482.0230102539062 C 1044.609985351562 483.4760131835938 1044.14404296875 484.0969848632812 1042.590942382812 484.0979919433594 L 1027.011962890625 484.0979919433594 C 1021.843994140625 484.0979919433594 1016.674865722656 484.0589599609375 1011.512023925781 484.1229858398438 C 1011.497741699219 484.1231689453125 1011.483581542969 484.1232604980469 1011.469482421875 484.1232604980469 Z" stroke="none" fill="#0d8f9f"/>
      </g>
      <g id="Path_130" data-name="Path 130" fill="none" stroke-miterlimit="10">
        <path d="M1062.768,484.1H1047.2c-1.538,0-1.987-.622-1.523-2.092q2.568-8.129,5.133-16.254a3.1,3.1,0,0,1,3.389-2.5h17.149a3.11,3.11,0,0,1,3.386,2.507l5.129,16.256c.46,1.456,0,2.08-1.535,2.081Q1070.552,484.1,1062.768,484.1Z" stroke="none"/>
        <path d="M 1068.489501953125 482.0986022949219 C 1071.591796875 482.0986022949219 1074.693969726562 482.0979614257812 1077.79541015625 482.0963134765625 L 1072.795654296875 466.24951171875 L 1072.773681640625 466.1349182128906 C 1072.673828125 465.6129760742188 1072.21630859375 465.2341918945312 1071.685791015625 465.2341918945312 C 1071.645751953125 465.2341918945312 1071.605102539062 465.2363586425781 1071.564697265625 465.2406921386719 L 1071.458618164062 465.2520141601562 L 1054.092041015625 465.2520141601562 L 1053.981811523438 465.23974609375 C 1053.940307617188 465.2351379394531 1053.898315429688 465.2327880859375 1053.857177734375 465.2327880859375 C 1053.331176757812 465.2327880859375 1052.877563476562 465.6091613769531 1052.7783203125 466.127685546875 L 1052.75634765625 466.2425537109375 L 1052.72119140625 466.3540649414062 C 1051.064819335938 471.6012573242188 1049.407470703125 476.8493347167969 1047.749389648438 482.0979919433594 L 1062.768310546875 482.0979919433594 C 1064.67578125 482.0983581542969 1066.582397460938 482.0986022949219 1068.489501953125 482.0986022949219 M 1068.489501953125 484.0986022949219 C 1066.582275390625 484.0986022949219 1064.675537109375 484.0983581542969 1062.767944335938 484.0979919433594 L 1047.203979492188 484.0979919433594 C 1045.666015625 484.0979919433594 1045.217041015625 483.4760131835938 1045.681030273438 482.0060119628906 C 1047.392944335938 476.5870056152344 1049.10400390625 471.1690063476562 1050.81396484375 465.7520141601562 C 1051.118041992188 464.1620178222656 1052.593383789062 463.0733032226562 1054.203002929688 463.2520141601562 L 1071.35205078125 463.2520141601562 C 1072.959106445312 463.080078125 1074.433837890625 464.1699523925781 1074.738037109375 465.7590026855469 L 1079.866943359375 482.0150146484375 C 1080.327026367188 483.4710083007812 1079.866943359375 484.0950012207031 1078.33203125 484.0960083007812 C 1075.051879882812 484.097900390625 1071.7705078125 484.0986022949219 1068.489501953125 484.0986022949219 Z" stroke="none" fill="#0d8f9f"/>
      </g>
      <path id="Path_131" data-name="Path 131" d="M1044.029,426.065V422.32c0-.4.073-.75.557-.751s.58.347.581.744v7.563c0,.414-.173.779-.6.7a.91.91,0,0,1-.508-.692C1044,428.607,1044.029,427.334,1044.029,426.065Z" fill="#0d8f9f"/>
      <path id="Path_132" data-name="Path 132" d="M1005.72,449.9l.517.164q3.513,1.142,7.027,2.28c.406.132.844.263.671.809s-.607.4-1.014.266c-2.363-.773-4.733-1.526-7.086-2.328a1.13,1.13,0,0,1-.543-.689C1005.253,450.29,1005.579,450.059,1005.72,449.9Z" fill="#0d8f9f"/>
      <path id="Path_133-2" data-name="Path 133-2" d="M1058.486,424.17c-.134.406-.219.656-.3.907q-1.067,3.281-2.132,6.561c-.133.41-.274.831-.82.649-.5-.167-.4-.561-.268-.956.77-2.344,1.529-4.691,2.293-7.037.037-.113.044-.276.125-.329.2-.133.467-.34.641-.288C1058.233,423.739,1058.371,424.037,1058.486,424.17Z" fill="#0d8f9f"/>
      <path id="Path_134-2" data-name="Path 134-2" d="M1069.133,429.536c.533-.011.82.422.623.807a6.592,6.592,0,0,1-.569.827q-1.983,2.736-3.971,5.469c-.228.315-.478.687-.929.384-.475-.32-.25-.693.008-1.046,1.453-2,2.9-4,4.36-5.986A3.309,3.309,0,0,1,1069.133,429.536Z" fill="#0d8f9f"/>
      <path id="Path_135-2" data-name="Path 135-2" d="M1034.991,431.779c-.115.141-.233.423-.4.453a1.106,1.106,0,0,1-.671-.221c-.1-.058-.115-.252-.159-.389-.76-2.322-1.522-4.644-2.265-6.971a1.206,1.206,0,0,1-.011-.742c.053-.14.407-.312.508-.256a1.2,1.2,0,0,1,.532.59c.653,1.928,1.273,3.868,1.9,5.8Z" fill="#0d8f9f"/>
      <path id="Path_136-2" data-name="Path 136-2" d="M1018.767,443.911a6.55,6.55,0,0,1-.892.432c-.094.029-.253-.114-.368-.2q-3.054-2.216-6.1-4.443a1.089,1.089,0,0,1-.389-.553c-.036-.137.11-.455.208-.469a1.2,1.2,0,0,1,.785.1c1.106.759,2.181,1.562,3.267,2.35.949.69,1.9,1.375,2.843,2.078A5.991,5.991,0,0,1,1018.767,443.911Z" fill="#0d8f9f"/>
      <path id="Path_137-2" data-name="Path 137-2" d="M1071.8,444.432c-.147-.1-.369-.164-.433-.3a.991.991,0,0,1-.016-.6c.029-.116.189-.209.3-.292l6.1-4.442c.317-.23.666-.383.946-.009.27.358.092.661-.247.906q-3.087,2.235-6.167,4.476A4.4,4.4,0,0,1,1071.8,444.432Z" fill="#0d8f9f"/>
      <path id="Path_138-2" data-name="Path 138-2" d="M1084.762,450.478c-.316.294-.455.524-.649.589-2.479.826-4.963,1.642-7.459,2.415a.822.822,0,0,1-.728-.331c-.194-.412.119-.641.511-.767q3.39-1.09,6.774-2.2c.228-.074.475-.239.68-.2A3.536,3.536,0,0,1,1084.762,450.478Z" fill="#0d8f9f"/>
      <path id="Path_139-2" data-name="Path 139-2" d="M1025.784,436.453c-.024.535-.477.79-.839.554a1.635,1.635,0,0,1-.38-.423q-2.121-2.912-4.234-5.827c-.1-.135-.261-.283-.256-.421a.985.985,0,0,1,.218-.663.706.706,0,0,1,.631.049,1.884,1.884,0,0,1,.45.551q2.035,2.8,4.064,5.594A6.418,6.418,0,0,1,1025.784,436.453Z" fill="#0d8f9f"/>
    </g>
    <text id="Gold" transform="translate(13296 8888)" fill="#707070" font-size="14" font-family="SegoeUI, Segoe UI"><tspan x="-14.721" y="0">Gold</tspan></text>
  </g>
</svg>
