<svg xmlns="http://www.w3.org/2000/svg" width="74" height="78.599" viewBox="0 0 74 78.599">
  <g id="Group_377" data-name="Group 377" transform="translate(-176 -583.401)">
    <g id="Group_376" data-name="Group 376" transform="translate(-0.656)">
      <path id="Path_97" data-name="Path 97" d="M128.22,497.967c1.411-.986,2.679-2.047,4.1-2.844a17.7,17.7,0,0,1,26.116,12.906,17.213,17.213,0,0,1-4.738,14.866c-1.781,1.9-3.667,3.693-5.507,5.534-.064.064-.139.116-.274.227-.016-.23-.036-.39-.036-.549,0-1.588.007-3.176,0-4.764a2.909,2.909,0,0,0-2.814-3c-.047,0-.095,0-.142,0q-3.444-.037-6.887,0a2.9,2.9,0,0,0-2.95,2.843v.106c-.027,1.626-.007,3.252-.007,4.879v.687c-.249.014-.449.032-.65.033-1.531,0-3.064.06-4.592-.012a3.062,3.062,0,0,0-3.319,3.3c.06,1.24.048,2.489,0,3.734-.18,5.227.421,6.009,5.815,5.788.8-.032,1.606,0,2.406,0l.171.194-6.62,6.313c-.1-.093-.242-.216-.374-.348L103.4,523.337a17.742,17.742,0,0,1,24.681-25.5C128.152,497.907,128.224,497.969,128.22,497.967Z" transform="translate(85.657 91.556)" fill="none" stroke="#0d8f9f" stroke-miterlimit="10" stroke-width="2"/>
      <g id="Path_98" data-name="Path 98" transform="translate(79.43 85.541)" fill="none" stroke-miterlimit="10">
        <path d="M143.524,546.785H136.44a7.06,7.06,0,0,1-.784-.019,1.124,1.124,0,0,1-1.076-1.161q-.022-3.644,0-7.29c0-.755.514-1.183,1.368-1.187,2.049-.008,4.1,0,6.145,0h1.4c.011-.238.03-.451.03-.66V529.72c0-1.156.4-1.549,1.562-1.549h6.628c1.045,0,1.461.408,1.463,1.456.006,2.248,0,4.5,0,6.747v.717c.261.014.472.036.684.036h6.689c1.206,0,1.6.392,1.6,1.575v6.507c0,1.191-.387,1.573-1.6,1.575-2.249,0-4.5.014-6.748-.009-.5-.008-.646.144-.64.643.024,2.268.013,4.539.009,6.807,0,1.133-.395,1.528-1.516,1.528h-6.507c-1.248,0-1.632-.376-1.632-1.6v-6.628Z" stroke="none"/>
        <path d="M 151.1744689941406 553.7531127929688 C 151.1749114990234 553.5469970703125 151.1753845214844 553.3408813476562 151.1758575439453 553.134765625 C 151.1801605224609 551.265625 151.1846008300781 549.3328247070312 151.16455078125 547.441162109375 C 151.1551666259766 546.6375122070312 151.3931121826172 545.9844360351562 151.8717498779297 545.500244140625 C 152.34765625 545.0187377929688 152.9862213134766 544.7745971679688 153.7696990966797 544.7745971679688 C 153.7894897460938 544.7745971679688 153.8097534179688 544.7747192382812 153.8302154541016 544.7750244140625 C 154.7041015625 544.7839965820312 155.6636047363281 544.7882080078125 156.8491973876953 544.7882080078125 C 157.4651794433594 544.7882080078125 158.0812072753906 544.787109375 158.6972351074219 544.7860717773438 C 159.1820068359375 544.7852172851562 159.6667785644531 544.784423828125 160.1501922607422 544.7840576171875 L 160.1501922607422 539.1277465820312 L 153.8505706787109 539.1277465820312 C 153.6473083496094 539.126953125 153.4667205810547 539.1146240234375 153.2920837402344 539.1026611328125 C 153.2210235595703 539.0977783203125 153.1464996337891 539.0926513671875 153.0666198730469 539.0883178710938 L 151.1743621826172 538.9862670898438 L 151.1743621826172 536.3743896484375 C 151.1743621826172 535.6239624023438 151.1750183105469 534.8735961914062 151.1756591796875 534.1232299804688 C 151.1767730712891 532.8275146484375 151.1779174804688 531.4930419921875 151.175537109375 530.1710205078125 L 145.5223388671875 530.1710205078125 L 145.5223388671875 536.46728515625 C 145.5223388671875 536.6648559570312 145.5114288330078 536.8484497070312 145.5018157958984 537.0104370117188 C 145.4978179931641 537.07763671875 145.4936676025391 537.1466064453125 145.4904174804688 537.21826171875 L 145.4038848876953 539.1277465820312 L 142.0927276611328 539.1277465820312 C 140.7275085449219 539.1277465820312 139.3620910644531 539.1240844726562 137.9964141845703 539.1240844726562 C 137.48291015625 539.1240844726562 137.0128784179688 539.1245727539062 136.5753021240234 539.125732421875 C 136.5663146972656 541.0069580078125 136.5662994384766 542.9039306640625 136.5752563476562 544.7847290039062 L 145.5375366210938 544.7847290039062 L 145.5190124511719 547.52685546875 L 145.5190124511719 553.7531127929688 L 151.1744689941406 553.7531127929688 M 151.6576538085938 555.7531127929688 L 145.1510620117188 555.7531127929688 C 143.9031677246094 555.7531127929688 143.5190124511719 555.3772583007812 143.5190124511719 554.1484375 L 143.5190124511719 547.520751953125 L 143.5239868164062 546.7847290039062 L 136.4399108886719 546.7847290039062 C 136.1785583496094 546.7929077148438 135.9163513183594 546.7864379882812 135.6558380126953 546.7656860351562 C 135.0393524169922 546.739990234375 134.5589599609375 546.2222290039062 134.5796966552734 545.6049194335938 C 134.5647583007812 543.175537109375 134.5647583007812 540.7453002929688 134.5796966552734 538.3150634765625 C 134.5846710205078 537.56005859375 135.0941162109375 537.1318969726562 135.9478912353516 537.1277465820312 C 137.9964904785156 537.1195678710938 140.0450134277344 537.1277465820312 142.0927276611328 537.1277465820312 L 143.4924621582031 537.1277465820312 C 143.5032501220703 536.8896484375 143.5223388671875 536.6771850585938 143.5223388671875 536.46728515625 L 143.5223388671875 529.7200927734375 C 143.5223388671875 528.5643310546875 143.9222564697266 528.1710205078125 145.0838470458984 528.1710205078125 L 151.7115783691406 528.1710205078125 C 152.7570343017578 528.1710205078125 153.1726989746094 528.5792236328125 153.1743621826172 529.627197265625 C 153.18017578125 531.8756713867188 153.1743621826172 534.125 153.1743621826172 536.3743896484375 L 153.1743621826172 537.0912475585938 C 153.4357299804688 537.1053466796875 153.6464691162109 537.126953125 153.8580474853516 537.1277465820312 L 160.5471801757812 537.1277465820312 C 161.7527618408203 537.1277465820312 162.1493530273438 537.5193481445312 162.1501922607422 538.7025756835938 C 162.1501922607422 540.8714599609375 162.1501922607422 543.040283203125 162.1501922607422 545.2091674804688 C 162.1501922607422 546.3997802734375 161.7627105712891 546.7822875976562 160.5521545410156 546.783935546875 C 158.3028106689453 546.783935546875 156.053466796875 546.798095703125 153.8041229248047 546.7748413085938 C 153.3024444580078 546.7669677734375 153.1585998535156 546.919189453125 153.1644134521484 547.4178466796875 C 153.1884613037109 549.686279296875 153.1776885986328 551.9563598632812 153.1735382080078 554.2247924804688 C 153.1735382080078 555.3573608398438 152.7785949707031 555.7523193359375 151.6576538085938 555.7531127929688 Z" stroke="none" fill="#0d8f9f"/>
      </g>
    </g>
    <text id="Health_Care" data-name="Health Care" transform="translate(213 658)" fill="#707070" font-size="14" font-family="SegoeUI, Segoe UI"><tspan x="-36.128" y="0">Health Care</tspan></text>
  </g>
</svg>
