<svg id="Group_339" data-name="Group 339" xmlns="http://www.w3.org/2000/svg" width="51.807" height="52.042" viewBox="0 0 51.807 52.042">
  <path id="Path_1" data-name="Path 1" d="M487.536,430.227c2.525,2.493,4.995,5.038,7.585,7.454,2.064,1.925,3.82,3.955,4.054,6.926.284,3.612-1.506,6.071-4.412,7.866-4.314,2.665-11.426,2.185-15.407-.989-4.512-3.6-4.486-9.6.029-13.227a58.747,58.747,0,0,0,4.542-3.914C485.292,432.993,486.472,431.455,487.536,430.227Zm-.014,11.889c-1.917,1.955-2.345,3.361-1.125,4.1a2.735,2.735,0,0,0,2.442-.061C490.017,445.349,489.494,443.867,487.522,442.116Z" transform="translate(-461.707 -403.139)" fill="#0d8f9f"/>
  <path id="Path_2" data-name="Path 2" d="M495.864,447.475c1.429,1.411,2.827,2.851,4.293,4.219a5.985,5.985,0,0,1,2.294,3.92,4.569,4.569,0,0,1-2.5,4.452,8.31,8.31,0,0,1-8.72-.559,4.615,4.615,0,0,1,.016-7.486,33.115,33.115,0,0,0,2.57-2.215C494.594,449.04,495.262,448.17,495.864,447.475Z" transform="translate(-470.029 -413.898)" fill="#2e166e"/>
  <path id="Path_3" data-name="Path 3" d="M481.146,375.4c1.831,5.639,6.626,9.432,10.8,13.716,4.465,4.586,5.63,9.239,3.641,14.953.533-5.033-2.028-8.535-5.562-11.594-3.5-3.027-6.833-6.211-9.145-10.628a21.046,21.046,0,0,1-2.061,3.186,88.137,88.137,0,0,1-7.738,7.623c-3.935,3.205-5.946,7-5.069,12.347a13.919,13.919,0,0,1,2.619-14.9c2.04-2.288,4.436-4.264,6.415-6.6C477.246,380.907,479.156,378.067,481.146,375.4Z" transform="translate(-454.804 -368.936)" fill="#0d8f9f"/>
  <path id="Path_4" data-name="Path 4" d="M485.47,405.714q4.831,4.535,9.654,9.062a9.768,9.768,0,0,1,2.98,9.733c-2.374-2.216-4.886-4.238-6.992-6.617-2.068-2.336-3.725-5.037-5.791-7.895-1.551,6.839-7.958,9.6-11.992,14.386-1.323-3.737-.122-7.386,3.294-10.151,1.946-1.575,3.9-3.155,5.711-4.877A41.941,41.941,0,0,0,485.47,405.714Z" transform="translate(-459.722 -387.847)" fill="#0d8f9f"/>
  <path id="Path_5" data-name="Path 5" d="M474.747,360.122a15,15,0,0,1-4.03,10.782c-2.278,2.579-4.776,4.965-7.193,7.419-3.546,3.6-5.714,7.77-5.214,12.962.171,1.775.648,3.521.83,5.327a16.271,16.271,0,0,1-2.827-8.409,13.67,13.67,0,0,1,3.911-10.806c2.539-2.682,5.241-5.213,7.916-7.764C470.982,366.926,473.547,364.045,474.747,360.122Z" transform="translate(-449.406 -359.406)" fill="#0d8f9f"/>
  <path id="Path_6" data-name="Path 6" d="M508.784,359.268c2.273,6.471,6.416,11.058,11.32,15.1a37.286,37.286,0,0,1,4.152,4.323c4.7,5.365,2.913,14.323-.661,17.817.4-1.747.769-3.252,1.088-4.768a13.266,13.266,0,0,0-3.41-12.147c-2.3-2.553-4.793-4.931-7.152-7.433a20.1,20.1,0,0,1-5.546-11.247,8.583,8.583,0,0,1-.082-.931A3.468,3.468,0,0,1,508.784,359.268Z" transform="translate(-481.986 -358.874)" fill="#0d8f9f"/>
  <path id="Path_7" data-name="Path 7" d="M546.254,419.545a18.09,18.09,0,0,0,2.439-12.419c-.818-4.474-3.934-7.4-7.213-10.695,1.922,0,3.466-.067,5,.04a2.413,2.413,0,0,1,1.378.83,16.852,16.852,0,0,1,.544,21.445,8.591,8.591,0,0,1-1.752,1.28Z" transform="translate(-502.563 -382.044)" fill="#0d8f9f"/>
  <path id="Path_8" data-name="Path 8" d="M454.736,396.292c-7.381,7.5-8.41,13.136-4.73,23.207-.573-.333-1.328-.53-1.692-1.018-4.058-5.442-4.291-14.041-.7-19.873,1.005-1.633,2.127-2.686,4.2-2.341A18.967,18.967,0,0,0,454.736,396.292Z" transform="translate(-442.431 -381.914)" fill="#0d8f9f"/>
  <path id="Path_9" data-name="Path 9" d="M562.385,419.792c4.947-11.5,4.905-13.9-.445-23.371a37.972,37.972,0,0,1,4.147.057,1.6,1.6,0,0,1,1,1.185c.061,6.938.068,13.876-.017,20.813-.005.444-.8,1.154-1.322,1.257A18.394,18.394,0,0,1,562.385,419.792Z" transform="translate(-515.327 -382.033)" fill="#0d8f9f"/>
  <path id="Path_10" data-name="Path 10" d="M442.772,419.419c-1.316.08-2.293.141-3.27.2-1.038.06-1.46-.453-1.459-1.469q.011-10.145-.014-20.29c0-.984.318-1.532,1.417-1.474s2.223.013,3.682.013C438.161,404.066,438.184,411.634,442.772,419.419Z" transform="translate(-438.029 -382.024)" fill="#0d8f9f"/>
  <path id="Path_11" data-name="Path 11" d="M522.125,371.321a29.218,29.218,0,0,1-9.13-12.667c3.009-.8,3.512-.622,5.095,1.652a13.626,13.626,0,0,0,1.9,2.547C522.58,365.141,522.535,368.031,522.125,371.321Z" transform="translate(-484.794 -358.22)" fill="#0d8f9f"/>
  <path id="Path_12" data-name="Path 12" d="M475.616,370.931c-.495-3.079-.353-5.712,2.249-7.732a12.586,12.586,0,0,0,2.326-2.929c1.465-2.126,2.148-2.378,5.037-1.563C483.8,364.176,479.363,367.191,475.616,370.931Z" transform="translate(-461.335 -358.256)" fill="#0d8f9f"/>
  <path id="Path_13" data-name="Path 13" d="M475.442,363.65c.053-.609.11-1.217.158-1.826.268-3.416.267-3.416,4.386-3.218l-4.058,5.311Z" transform="translate(-461.368 -358.417)" fill="#0d8f9f"/>
  <path id="Path_14" data-name="Path 14" d="M527.359,358.762c4.068-.645,4.42-.157,3.647,5.008Z" transform="translate(-493.755 -358.419)" fill="#0d8f9f"/>
  <path id="Path_15" data-name="Path 15" d="M481.39,490.62h-1.873c-3.561,0-3.561,0-3.153-3.583Z" transform="translate(-461.831 -438.578)" fill="#0d8f9f"/>
  <path id="Path_16" data-name="Path 16" d="M524.579,491.2l4.614-3.229c.932,2.539.5,3.231-2.159,3.229Z" transform="translate(-492.02 -439.161)" fill="#0d8f9f"/>
  <path id="Path_17" data-name="Path 17" d="M503.648,461.831c1.972,1.751,2.495,3.233,1.317,4.04a2.735,2.735,0,0,1-2.442.061C501.3,465.192,501.732,463.786,503.648,461.831Z" transform="translate(-477.834 -422.854)" fill="#fff"/>
</svg>
