<svg xmlns="http://www.w3.org/2000/svg" width="52.45" height="87.487" viewBox="0 0 52.45 87.487">
  <g id="Group_366" data-name="Group 366" transform="translate(-13269.473 -8967.513)">
    <g id="Isolation_Mode" data-name="Isolation Mode" transform="translate(12244.216 8385.078)">
      <g id="Group_358" data-name="Group 358">
        <path id="Path_191" data-name="Path 191" d="M1050.714,605.9a14.872,14.872,0,0,0-13.973-3.077,14.714,14.714,0,0,0-9.522,8.75c-1.874,4.569-1.913,10.191-.112,16.258a30.832,30.832,0,0,0,9.323,14.919,15.723,15.723,0,0,0,9.942,4.05,11.521,11.521,0,0,0,3.282-.474,2.68,2.68,0,0,1,3.679,0c8.645,2.563,18.759-5.732,22.547-18.495,3.556-11.984-.406-22.269-9.635-25.009a14.882,14.882,0,0,0-13.973,3.077l-.793.781Zm23.67,21.488c-3.543,11.937-12.79,19.77-20.608,17.442a9.9,9.9,0,0,1-1.91-.8.782.782,0,0,0-.747,0,9.826,9.826,0,0,1-1.909.8c-3.73,1.11-7.915-.057-11.783-3.279a29.266,29.266,0,0,1-8.826-14.163c-1.7-5.724-1.678-10.988.059-15.223a13.182,13.182,0,0,1,8.525-7.847c4.832-1.436,9.848-.015,13.757,3.895h0a.779.779,0,0,0,1.1,0h0c3.908-3.91,8.923-5.332,13.757-3.895C1074.151,606.792,1077.68,616.279,1074.384,627.384Z" fill="#0d8f9f" stroke="#0d8f9f" stroke-miterlimit="10" stroke-width="1"/>
        <path id="Path_192" data-name="Path 192" d="M1039.594,610.116a8.375,8.375,0,0,0-5.117,4.135c-1.524,2.81-1.683,6.61-.448,10.7a.78.78,0,0,1-1.493.45c-1.356-4.491-1.153-8.715.571-11.894a9.9,9.9,0,0,1,6.05-4.888.779.779,0,1,1,.437,1.5Z" fill="#0d8f9f" stroke="#0d8f9f" stroke-miterlimit="10" stroke-width="1"/>
        <path id="Path_193" data-name="Path 193" d="M1067.606,583.81a.779.779,0,0,0-.641-.641c-.344-.058-8.482-1.351-12.847,3.014-2.348,2.348-3.059,5.77-3.287,8.857-.083,1.068-.134,2.57-.134,3.865,0,.75,1.575.839,1.575.839,2.122,0,8.537.7,12.32-3.087C1068.958,592.292,1067.663,584.154,1067.606,583.81Zm-4.116,11.746c-3.385,3.384-9.808,2.793-11.214,2.616.035-3.361.2-8.14,2.944-10.887,3.2-3.195,9.075-2.85,10.92-2.651C1066.338,586.481,1066.678,592.368,1063.49,595.556Z" fill="#0d8f9f" stroke="#0d8f9f" stroke-miterlimit="10" stroke-width="1"/>
      </g>
    </g>
    <text id="Adam" transform="translate(13296 9051)" fill="#707070" font-size="14" font-family="SegoeUI, Segoe UI"><tspan x="-18.228" y="0">Adam</tspan></text>
  </g>
</svg>
