<svg xmlns="http://www.w3.org/2000/svg" width="88" height="83.37" viewBox="0 0 88 83.37">
  <g id="Group_375" data-name="Group 375" transform="translate(-167 -460.63)">
    <g id="Group_374" data-name="Group 374" transform="translate(-2.615)">
      <g id="Group_113" data-name="Group 113" transform="translate(183.616 461.629)">
        <path id="Path_30" data-name="Path 30" d="M107.409,349.552q.106-.788.289-1.561a4.323,4.323,0,0,1,3.955-3.086c1.255-.038,2.515-.043,3.77,0a4.351,4.351,0,0,1,4.088,3.8c.031.249.056.5.088.8h8.127c.016-.153.038-.326.051-.5a4.369,4.369,0,0,1,4.36-4.11c1.056-.01,2.113,0,3.169,0a4.386,4.386,0,0,1,4.519,4.249c0,.052,0,.1,0,.158,0,.072.009.144.019.3h6.039a3,3,0,0,1,3.327,3.3q0,12.695-.008,25.395a.755.755,0,0,0,.536.839A14.58,14.58,0,1,1,129.917,396c-.107-.44-.28-.527-.689-.526-9.309.011-18.617-.02-27.926.031a3.179,3.179,0,0,1-3.345-3.365c.037-13.125.018-26.25.02-39.376a2.942,2.942,0,0,1,2.164-3.093,4.288,4.288,0,0,1,1.079-.11c1.877-.011,3.753-.005,5.629-.005Zm22.109,41.968a14.691,14.691,0,0,1,15.627-13.515v-.573c0-4.333-.01-8.666.014-13,0-.533-.183-.617-.655-.617q-20.9.016-41.808.009h-.617v27.7Zm4.007,1.031A10.563,10.563,0,1,0,144.1,382h-.022a10.578,10.578,0,0,0-10.55,10.556Z" transform="translate(-97.951 -344.875)" fill="none" stroke="#0d8f9f" stroke-linecap="round" stroke-linejoin="round" stroke-width="2"/>
        <path id="Path_35" data-name="Path 35" d="M127.98,380.322c-1.056,0-2.112,0-3.168,0-.646,0-.892-.249-.894-.889q-.007-2.65,0-5.3c0-.613.249-.884.851-.888q3.251-.017,6.5,0a.737.737,0,0,1,.84.617.725.725,0,0,1,0,.228q.012,2.7,0,5.408c0,.565-.271.816-.852.821C130.161,380.328,129.072,380.322,127.98,380.322Z" transform="translate(-102.372 -349.705)" fill="none" stroke="#0d8f9f" stroke-miterlimit="10" stroke-width="2"/>
        <path id="Path_36" data-name="Path 36" d="M112.816,380.323h-3.169c-.664,0-.894-.231-.9-.88q-.007-2.65,0-5.3c0-.649.239-.9.891-.9q3.2-.012,6.389,0c.664,0,.913.267.913.947q.009,2.594,0,5.19c0,.7-.249.938-.961.941C114.928,380.326,113.871,380.323,112.816,380.323Z" transform="translate(-99.79 -349.705)" fill="none" stroke="#0d8f9f" stroke-miterlimit="10" stroke-width="2"/>
        <path id="Path_37" data-name="Path 37" d="M143.239,380.323c-1.056,0-2.112,0-3.169,0-.655,0-.885-.232-.888-.889q-.007-2.65,0-5.3c0-.64.249-.888.9-.89q3.2-.012,6.389,0c.637,0,.9.267.9.9q.012,2.648,0,5.3c0,.628-.268.875-.913.878C145.388,380.327,144.313,380.323,143.239,380.323Z" transform="translate(-104.972 -349.705)" fill="none" stroke="#0d8f9f" stroke-miterlimit="10" stroke-width="2"/>
        <path id="Path_38" data-name="Path 38" d="M112.844,387.237c1.056,0,2.112,0,3.169,0,.7,0,.928.219.931.9q.01,2.622,0,5.245c0,.669-.249.913-.933.913q-3.169.007-6.338,0c-.7,0-.922-.222-.923-.913q-.007-2.624,0-5.245c0-.688.222-.9.925-.913Q111.26,387.235,112.844,387.237Z" transform="translate(-99.789 -352.087)" fill="none" stroke="#0d8f9f" stroke-miterlimit="10" stroke-width="2"/>
        <path id="Path_39" data-name="Path 39" d="M128.015,387.239c1.056,0,2.112,0,3.169,0,.711,0,.925.212.927.9q.007,2.624,0,5.246c0,.676-.24.913-.924.917q-3.169.009-6.339,0c-.712,0-.931-.234-.933-.963q0-2.573,0-5.136c0-.747.218-.963.984-.966C125.938,387.235,126.977,387.239,128.015,387.239Z" transform="translate(-102.372 -352.089)" fill="none" stroke="#0d8f9f" stroke-miterlimit="10" stroke-width="2"/>
      </g>
      <path id="Path_180" data-name="Path 180" d="M153.556,394.086v6.853h7.365" transform="translate(76.196 108.374)" fill="none" stroke="#0d8f9f" stroke-linecap="round" stroke-linejoin="round" stroke-width="2"/>
      <rect id="Rectangle_178" data-name="Rectangle 178" width="4.949" height="5.733" rx="2.255" transform="translate(196.678 465.586)" fill="none" stroke="#0d8f9f" stroke-miterlimit="10" stroke-width="2"/>
      <rect id="Rectangle_179" data-name="Rectangle 179" width="4.949" height="5.733" rx="2.255" transform="translate(216.975 465.586)" fill="none" stroke="#0d8f9f" stroke-miterlimit="10" stroke-width="2"/>
    </g>
    <text id="Appointments" transform="translate(211 540)" fill="#707070" font-size="14" font-family="SegoeUI, Segoe UI"><tspan x="-43.87" y="0">Appointments</tspan></text>
  </g>
</svg>
