<svg xmlns="http://www.w3.org/2000/svg" width="73.677" height="103.503" viewBox="0 0 73.677 103.503">
  <g id="Group_363" data-name="Group 363" transform="translate(-13004.496 -9128.497)">
    <g id="Group_305" data-name="Group 305" transform="translate(12251.716 8385.078)">
      <path id="Path_144" data-name="Path 144" d="M789.531,787.905c-1.854-6.943-3.635-13.619-5.417-20.294-.487-1.824-.985-3.644-1.455-5.472-.161-.623-.438-1.126-1.148-1.058s-.875.612-.926,1.255q-.789,9.66-1.609,19.319c-.092,1.09-.193,2.178-.294,3.321-.324.02-.589.051-.854.052-3.782,0-7.563.011-11.345-.013a1.652,1.652,0,0,1-1.058-.337,49.9,49.9,0,0,1-8.682-10.8,24.084,24.084,0,0,1-3.408-13.994,17.284,17.284,0,0,1,13.528-15.49,21.25,21.25,0,0,1,9.075.042,12.7,12.7,0,0,1,7.912,5.209c1.373,1.928,2.485,4.042,3.767,6.038a1.957,1.957,0,0,0,1.154.931c.336.026.844-.507,1.064-.909a28.055,28.055,0,0,1,5.384-7.339,16.826,16.826,0,0,1,9.89-4.27c5.764-.634,10.994.563,15.327,4.6a16.8,16.8,0,0,1,5.472,13.615c-.275,6.339-2.958,11.686-6.852,16.5-1.607,1.988-3.391,3.836-5.139,5.7a1.8,1.8,0,0,1-1.176.485c-3.2.039-6.4,0-9.605.04-.688.01-.922-.25-1.121-.855-1.731-5.262-3.5-10.512-5.251-15.766-.048-.144-.054-.332-.151-.425-.34-.327-.728-.882-1.066-.86s-.858.562-.965.965c-.794,2.939-1.5,5.9-2.24,8.853q-1.263,5.051-2.536,10.1C789.753,787.256,789.679,787.448,789.531,787.905Z" fill="none" stroke="#0d8f9f" stroke-miterlimit="10" stroke-width="1"/>
      <path id="Path_145" data-name="Path 145" d="M789.586,806.485l-21.581-19.238.094-.216h11.024c1.186,0,1.422-.246,1.519-1.419.475-5.737.96-11.474,1.6-17.236.436,1.616.878,3.23,1.309,4.848q2.482,9.306,4.955,18.616c.155.584.334,1.166,1.058,1.185.782.022.973-.586,1.128-1.208q2.375-9.523,4.757-19.044c.071-.284.157-.566.282-1.009.183.489.321.821.434,1.161,1.424,4.273,2.867,8.54,4.247,12.827a1.622,1.622,0,0,0,1.854,1.3c2.923-.062,5.849-.022,8.923.177Z" fill="none" stroke="#0d8f9f" stroke-miterlimit="10" stroke-width="1"/>
    </g>
    <text id="Cardiac_Evaluation" data-name="Cardiac
Evaluation" transform="translate(13041 9209)" fill="#707070" font-size="14" font-family="SegoeUI, Segoe UI"><tspan x="-22.941" y="0">Cardiac</tspan><tspan x="-31.804" y="19">Evaluation</tspan></text>
  </g>
</svg>
