<svg xmlns="http://www.w3.org/2000/svg" width="104" height="100.042" viewBox="0 0 104 100.042">
  <g id="Group_399" data-name="Group 399" transform="translate(-162 -299.958)">
    <g id="Layer_1" data-name="Layer 1" transform="translate(-208.064 -117.604)">
      <path id="Path_181" data-name="Path 181" d="M446.668,473.347l-11.977,11.977-6.167-6.167" fill="none" stroke="#0d8f9f" stroke-linecap="round" stroke-linejoin="round" stroke-width="2"/>
      <circle id="Ellipse_13" data-name="Ellipse 13" cx="15.382" cy="15.382" r="15.382" transform="translate(422.214 462.46)" fill="none" stroke="#0d8f9f" stroke-miterlimit="10" stroke-width="2"/>
      <g id="Group_334" data-name="Group 334">
        <path id="Path_182" data-name="Path 182" d="M411.829,459.106a4.742,4.742,0,1,0,6.706,0h0A4.749,4.749,0,0,0,411.829,459.106Zm5.089,5.089a2.454,2.454,0,1,1,0-3.472A2.453,2.453,0,0,1,416.918,464.2Z" fill="#0d8f9f"/>
        <path id="Path_183" data-name="Path 183" d="M415.182,452.484a4.739,4.739,0,1,0-3.347-1.386A4.739,4.739,0,0,0,415.182,452.484Zm-1.736-6.47a2.455,2.455,0,1,1,0,3.472h0A2.459,2.459,0,0,1,413.446,446.014Z" fill="#0d8f9f"/>
        <path id="Path_184" data-name="Path 184" d="M424.181,449.19a6.715,6.715,0,1,0,9.5,0h0a6.673,6.673,0,0,0-9.436-.06Zm7.879,7.88a4.395,4.395,0,1,1,.05-.05Z" fill="#0d8f9f"/>
        <g id="Group_333" data-name="Group 333">
          <path id="Path_185" data-name="Path 185" d="M425.781,490.3a5.83,5.83,0,0,1-5.25,2.868,5.9,5.9,0,0,1-5.6-5.74,5.811,5.811,0,0,1,3.987-5.614,1.142,1.142,0,0,0,.782-1.085v-4.669a4.234,4.234,0,0,0-3.22-4.119,17.684,17.684,0,0,1-8.246-4.666l-.017-.017A4.3,4.3,0,0,0,405.177,466a4.223,4.223,0,0,0-2.113.566l-5.97,3.457a1.141,1.141,0,0,0-.563,1.116,4.433,4.433,0,0,1-8.226,2.746c-.054-.093-.106-.188-.153-.284a4.431,4.431,0,0,1,6.357-5.7,1.146,1.146,0,0,0,1.187.024l6.061-3.5a4.249,4.249,0,0,0,1.956-4.836,17.756,17.756,0,0,1,0-9.651,4.249,4.249,0,0,0-1.956-4.836l-6.06-3.516a1.144,1.144,0,0,0-1.186.024,4.434,4.434,0,1,1,2.02-3.239,1.142,1.142,0,0,0,.563,1.117l5.97,3.456a4.26,4.26,0,0,0,5.157-.7l.018-.017a17.675,17.675,0,0,1,8.246-4.666,4.234,4.234,0,0,0,3.22-4.12v-4.034a1.143,1.143,0,0,0-.692-1.05,4.434,4.434,0,1,1,3.817-.152,1.144,1.144,0,0,0-.609,1.012v4.322a4.26,4.26,0,0,0,3.15,4.107,17.7,17.7,0,0,1,7.919,4.582l.153.153a4.242,4.242,0,0,0,5.164.709l5.853-3.388a1.143,1.143,0,0,0,.557-1.161,4.432,4.432,0,1,1,2.149,3.16,1.142,1.142,0,0,0-1.147,0l-6.2,3.588a4.223,4.223,0,0,0-1.977,4.76,17.8,17.8,0,0,1,0,9.408,4.185,4.185,0,0,0-.133,1.2,17.417,17.417,0,0,1,2.311.185,1.906,1.906,0,0,1,.025-.784,20.087,20.087,0,0,0,0-10.616,1.936,1.936,0,0,1,.912-2.178l5.658-3.276a6.716,6.716,0,1,0-3.945-5.906l-5.221,3.023a1.958,1.958,0,0,1-2.384-.327l-.167-.17a20,20,0,0,0-8.945-5.173,1.963,1.963,0,0,1-1.456-1.9v-3.676a6.719,6.719,0,1,0-7.086.245v3.33a1.952,1.952,0,0,1-1.485,1.9,19.968,19.968,0,0,0-9.312,5.269l-.018.018a1.979,1.979,0,0,1-2.389.333l-5.363-3.105a6.721,6.721,0,1,0-3.73,6.031l5.5,3.185a1.963,1.963,0,0,1,.9,2.237,20.032,20.032,0,0,0,0,10.892,1.963,1.963,0,0,1-.9,2.237l-5.5,3.182a6.718,6.718,0,1,0,3.729,6.031l5.364-3.105a1.976,1.976,0,0,1,2.384.328l.023.023a19.985,19.985,0,0,0,9.312,5.264,1.952,1.952,0,0,1,1.485,1.9v3.885a8.115,8.115,0,0,0,3.028,15.513h.322a8.1,8.1,0,0,0,6.789-3.687A17.276,17.276,0,0,1,425.781,490.3Z" fill="#0d8f9f"/>
          <path id="Path_186" data-name="Path 186" d="M454.577,463.852a9.4,9.4,0,0,0-8.481-.937,17.226,17.226,0,0,1,2.475,1.7,7.064,7.064,0,0,1,7.046,10.359h0a7.056,7.056,0,0,1-.909,1.3c.046.515.079,1.035.079,1.562,0,.505-.033,1-.076,1.495a9.361,9.361,0,0,0-.131-15.484Z" fill="#0d8f9f"/>
        </g>
      </g>
    </g>
    <text id="Post_COVID_Care" data-name="Post COVID Care" transform="translate(214 396)" fill="#707070" font-size="14" font-family="SegoeUI, Segoe UI"><tspan x="-51.3" y="0">Post COVID Care</tspan></text>
  </g>
</svg>
