<svg xmlns="http://www.w3.org/2000/svg" width="54" height="77.202" viewBox="0 0 54 77.202">
  <g id="Group_378" data-name="Group 378" transform="translate(-187 -689.798)">
    <g id="Group_331" data-name="Group 331" transform="translate(195 689.798)">
      <path id="Path_175" data-name="Path 175" d="M116.349,681.908a4.406,4.406,0,0,1-2.834-.6,3.978,3.978,0,0,1-1.51-5.04,1.022,1.022,0,1,1,1.974.533,1.01,1.01,0,0,1-.144.311,1.779,1.779,0,0,0,.285,2.065,1.735,1.735,0,0,0,1.891.6.642.642,0,0,0,.375-.4c1-5.054,4.073-8.456,8.6-10.635a16.662,16.662,0,0,1,9.28-1.381,2.365,2.365,0,0,0,1.135-.215,21.4,21.4,0,0,1,5.026-1.775,3.93,3.93,0,0,1,1.133-.032,1.717,1.717,0,0,1,1.483,1.916c-.045,1.079-.176,2.157-.229,3.236a.947.947,0,0,0,.258.664,14.107,14.107,0,0,1,2.871,3.656.755.755,0,0,0,.638.446,3.6,3.6,0,0,1,3.077,3.623c.051,1.632.051,3.267,0,4.9a3.548,3.548,0,0,1-3.09,3.419.885.885,0,0,0-.689.481,5.686,5.686,0,0,0-1.045,3.849,5.032,5.032,0,0,1-3.291,5.284,5.838,5.838,0,0,1-6.6-1.128,1.647,1.647,0,0,0-1.245-.428c-1.588-.006-3.179-.077-4.762-.208a1.151,1.151,0,0,0-1,.476,5.891,5.891,0,0,1-9.615-6.566.83.83,0,0,0-.045-.921,12.75,12.75,0,0,1-1.877-5.788C116.385,682.159,116.37,682.068,116.349,681.908Z" transform="translate(-111.64 -641.716)" fill="none" stroke="#0d8f9f" stroke-miterlimit="10" stroke-width="2"/>
      <g id="Path_176" data-name="Path 176" transform="translate(-114.557 -642.95)" fill="none" stroke-miterlimit="10">
        <path d="M134.719,672.646a6.073,6.073,0,0,0-1.6-.057c-.32.032-.617.065-.911.12a6.272,6.272,0,0,0-3.077,1.5,1.034,1.034,0,0,0-.166,1.387.944.944,0,0,0,1.318.21l.048-.037a5.491,5.491,0,0,1,5.084-1.021,1.054,1.054,0,0,0,1.323-.685c0-.017.01-.033.014-.05a.965.965,0,0,0-.739-1.147C135.994,672.863,135.334,672.75,134.719,672.646Z" stroke="none"/>
        <path d="M 133.7050628662109 672.5610961914062 C 134.0449066162109 672.5610961914062 134.3846740722656 672.5895385742188 134.7193756103516 672.646484375 C 135.3341979980469 672.7501831054688 135.9938049316406 672.863037109375 136.0137329101562 672.8671875 C 136.5339508056641 672.9791870117188 136.8658447265625 673.4927978515625 136.7530059814453 674.0138549804688 C 136.7488403320312 674.0303955078125 136.7438659667969 674.0470581054688 136.7388916015625 674.0636596679688 C 136.5630035400391 674.6178588867188 135.9706115722656 674.9248046875 135.4163208007812 674.7489624023438 C 133.6581878662109 674.2171630859375 131.7498321533203 674.599609375 130.3318481445312 675.76953125 C 130.3161010742188 675.781982421875 130.3003234863281 675.79443359375 130.2837219238281 675.806884765625 C 129.8622741699219 676.1121826171875 129.2723388671875 676.0184326171875 128.9661560058594 675.596923828125 C 128.6533508300781 675.161376953125 128.7255401611328 674.5589599609375 129.132080078125 674.2096557617188 C 129.9991455078125 673.433837890625 131.0644989013672 672.9144897460938 132.2094879150391 672.7095336914062 C 132.5032043457031 672.6539306640625 132.8002471923828 672.6207885742188 133.1205139160156 672.5892333984375 C 133.3148040771484 672.5704956054688 133.5099182128906 672.5610961914062 133.7050628662109 672.5610961914062 Z" stroke="none" fill="#0d8f9f"/>
      </g>
      <g id="Path_177" data-name="Path 177" transform="translate(-116.946 -644.087)" fill="none" stroke-miterlimit="10">
        <path d="M142.8,680.731a1.539,1.539,0,0,0,1.518,1.522,1.509,1.509,0,0,0-.033-3.017,1.529,1.529,0,0,0-1.488,1.494Z" stroke="none"/>
        <path d="M 144.3025817871094 679.2359008789062 C 145.1279296875 679.2359008789062 145.8016204833984 679.9004516601562 145.8106842041016 680.7278442382812 C 145.8198089599609 681.5609130859375 145.1518859863281 682.2437133789062 144.3188629150391 682.2528686523438 C 143.4841766357422 682.2412109375 142.8104553222656 681.5658569335938 142.8013153076172 680.731201171875 L 142.7980041503906 680.7302856445312 C 142.8162536621094 679.9147338867188 143.4708862304688 679.2576293945312 144.2856750488281 679.2360229492188 C 144.2913208007812 679.2359619140625 144.2969512939453 679.2359008789062 144.3025817871094 679.2359008789062 Z" stroke="none" fill="#0d8f9f"/>
      </g>
      <path id="Path_114" data-name="Path 114" d="M132.216,659.225a11.176,11.176,0,1,1,11.192-11.16v.015A11.221,11.221,0,0,1,132.216,659.225Zm.031-1.805a9.419,9.419,0,0,0,.021-18.839h-.01a9.641,9.641,0,0,0-9.515,9.5,9.512,9.512,0,0,0,9.5,9.341Z" transform="translate(-113.244 -636.873)" fill="#0d8f9f"/>
      <path id="Path_118" data-name="Path 118" d="M136.56,654.135l-1.091,1.162-6.778-7.257c1.536,0,2.912.006,4.289,0a1.685,1.685,0,0,0,1.616-1h-4.978V645.4h4.942a1.379,1.379,0,0,0-1.432-1.033c-1.155-.01-2.31,0-3.506,0v-1.623c.166-.012.344-.035.524-.035,2.562,0,5.125.011,7.688-.012.489-.005.636.156.591.616-.032.332-.006.67-.006,1.044h-2.462l.373,1.04h1.985v1.619c-.591,0-1.156-.017-1.719.011a.548.548,0,0,0-.419.237,3.486,3.486,0,0,1-3.524,2.45c-.029,0-.057.036-.144.095Z" transform="translate(-114.544 -637.865)" fill="#0d8f9f"/>
    </g>
    <text id="Finances" transform="translate(214 763)" fill="#707070" font-size="14" font-family="SegoeUI, Segoe UI"><tspan x="-26.462" y="0">Finances</tspan></text>
  </g>
</svg>
