<svg xmlns="http://www.w3.org/2000/svg" width="104" height="94" viewBox="0 0 104 94">
  <g id="Group_400" data-name="Group 400" transform="translate(-161 -463)">
    <g id="Group_387" data-name="Group 387" transform="translate(-214.523 -185.272)">
      <path id="Path_194" data-name="Path 194" d="M454.685,703.43v-3.275a9.959,9.959,0,0,0-10.1-10.259c-5.989,0-9.679,4.411-9.679,10.042v11.69c0,3.539-3.7,6.917-7.726,6.917-5.191,0-7.633-4.143-7.633-7.929l-.053-10.868a2.576,2.576,0,0,0,2.482-2.55c1.111-.062,2.242-.15,3.415-.268,4.132-.414,8.162-5.558,9.534-10.1,2.717-9.294,4.8-17.625,6.372-25.5a8.444,8.444,0,0,0-1.713-6.564,12.437,12.437,0,0,0-6.044-4.217,3.892,3.892,0,1,0-3.531,5.518c1.415,0,2.717-1.309,3.4-2.441a8.647,8.647,0,0,1,4.044,3.018,6.675,6.675,0,0,1,1.026,4.543c-1.547,7.743-3.532,16.09-6.216,25.273-1.245,4.122-4.147,7.4-6.217,7.605a10.068,10.068,0,0,1-3.8.543c-1.208-2.595-2.568-2.606-3.924-2.606s-2.776.131-3.681,2.787a14.522,14.522,0,0,1-3.543-.431,12.347,12.347,0,0,1-6.914-8.007c-2.683-7.046-6.438-23.318-6.617-25.857-.227-1.263.722-2.984,1.646-4.22a10.239,10.239,0,0,1,3.719-3.005,3.432,3.432,0,0,0,3.7,2.8,3.9,3.9,0,0,0,0-7.794,3.894,3.894,0,0,0-3.532,2.275,12.444,12.444,0,0,0-6.045,4.218,8.465,8.465,0,0,0-1.708,6.6c1.567,7.835,3.65,16.165,6.373,25.482,1.367,4.527,5.4,9.67,9.527,10.086,1.173.118,2.3.206,3.416.268a3.756,3.756,0,0,0,2.479,2.518v10.9c0,5.762,4.2,10.393,10.04,10.393,5.9,0,10.189-3.945,10.189-9.381v-11.69c0-3.688,1.892-7.579,7.216-7.579,5.649,0,7.639,4.419,7.639,7.8v3.275c-5.07,0-8.144,4.4-8.144,8.7a8.876,8.876,0,1,0,10.608-8.7ZM452.953,718.6a6.472,6.472,0,1,1,6.472-6.472A6.48,6.48,0,0,1,452.953,718.6Z" fill="#0d8f9f"/>
      <path id="Path_42" data-name="Path 42" d="M418.93,668.071c.308-.37.567-.738.884-1.048a4.768,4.768,0,0,1,6.609-.122,4.639,4.639,0,0,1,.055,6.559l-.112.11q-3.288,3.313-6.6,6.6c-.629.627-1.053.639-1.665.029q-3.351-3.337-6.69-6.686c-2.046-2.042-2.111-6.665,2.01-7.811a4.369,4.369,0,0,1,4.466,1.262C418.2,667.286,418.5,667.616,418.93,668.071Z" fill="none" stroke="#0d8f9f" stroke-miterlimit="10" stroke-width="2"/>
    </g>
    <text id="Health_Checkups" data-name="Health Checkups" transform="translate(213 553)" fill="#707070" font-size="14" font-family="SegoeUI, Segoe UI"><tspan x="-51.854" y="0">Health Checkups</tspan></text>
  </g>
</svg>
