<svg xmlns="http://www.w3.org/2000/svg" width="54" height="86.495" viewBox="0 0 54 86.495">
  <g id="Group_365" data-name="Group 365" transform="translate(-13269 -9126.505)">
    <g id="Group_293" data-name="Group 293" transform="translate(12250.268 8385.078)">
      <path id="Path_156" data-name="Path 156" d="M1056.2,780.525h-20.268v-6.938a2.779,2.779,0,0,0-2.252-3.084,42.556,42.556,0,0,1-9.478-4.3,2.564,2.564,0,0,1-1.217-3.416l.008-.018a2.591,2.591,0,0,1,3.493-1.1l.036.02a50.513,50.513,0,0,0,39.09,0,2.543,2.543,0,1,1,2.5,4.427c-.063.035-.126.068-.192.1a42.791,42.791,0,0,1-9.547,4.316,2.726,2.726,0,0,0-2.174,2.917c-.006,2.085,0,4.169,0,6.254Z" fill="none" stroke="#0d8f9f" stroke-miterlimit="10" stroke-width="1"/>
      <path id="Path_157" data-name="Path 157" d="M1046.042,741.927a10.571,10.571,0,1,1-10.567,10.575A10.571,10.571,0,0,1,1046.042,741.927Z" fill="none" stroke="#0d8f9f" stroke-miterlimit="10" stroke-width="1"/>
      <path id="Path_158" data-name="Path 158" d="M1035.021,782.406l9.2,6.438-5.5,4.591c.284.375.554.74.831,1.1l3.448,4.4a3.32,3.32,0,0,1-4.974,4.4q-3.939-3.923-7.862-7.858a3.414,3.414,0,0,1-.64-4.528c.416-.749.907-1.458,1.371-2.177C1032.255,786.672,1033.614,784.579,1035.021,782.406Z" fill="none" stroke="#0d8f9f" stroke-miterlimit="10" stroke-width="1"/>
      <path id="Path_159" data-name="Path 159" d="M1053.42,793.446l-5.518-4.6,9.154-6.412c.133.174.261.315.363.473,1.628,2.508,3.264,5.013,4.867,7.537a6.306,6.306,0,0,1,.724,1.594,3.02,3.02,0,0,1-.8,3.177c-2.742,2.739-5.474,5.489-8.227,8.217a3.311,3.311,0,0,1-4.909-4.44C1050.508,797.158,1051.946,795.326,1053.42,793.446Z" fill="none" stroke="#0d8f9f" stroke-miterlimit="10" stroke-width="1"/>
    </g>
    <text id="Pediatric" transform="translate(13296 9209)" fill="#707070" font-size="14" font-family="SegoeUI, Segoe UI"><tspan x="-26.435" y="0">Pediatric</tspan></text>
  </g>
</svg>
