<svg xmlns="http://www.w3.org/2000/svg" width="56" height="84.625" viewBox="0 0 56 84.625">
  <g id="Group_361" data-name="Group 361" transform="translate(-13013 -8807.375)">
    <g id="Group_21" data-name="Group 21" transform="translate(12239.355 8223.584)">
      <path id="Path_107" data-name="Path 107" d="M816.866,620.218h-.754c-2.3,0-4.6.011-6.894-.008a1.883,1.883,0,0,0-1.457.6c-1.738,1.755-3.5,3.485-5.256,5.224-.156.154-.318.3-.51.485-.182-.167-.346-.309-.5-.461-1.755-1.737-3.519-3.467-5.256-5.223a1.943,1.943,0,0,0-1.508-.625c-2.3.023-4.6.009-6.894.009h-.726v-.711c0-2.318-.01-4.635.008-6.953a1.66,1.66,0,0,0-.537-1.286c-1.793-1.757-5.734-5.585-5.937-5.708,1.793-1.776,3.423-3.5,5.174-5.084a3.653,3.653,0,0,0,1.322-3.161c-.109-2.15-.03-4.309-.03-6.534.242-.011.456-.03.67-.03,2.339,0,4.677-.011,7.016,0a1.775,1.775,0,0,0,1.355-.554c1.915-1.92,3.846-3.825,5.82-5.782.176.164.336.3.488.456,1.784,1.765,3.574,3.527,5.344,5.307a1.834,1.834,0,0,0,1.407.574c2.521-.016,5.042-.007,7.656-.007v.67c0,2.318.012,4.636-.008,6.953a1.721,1.721,0,0,0,.558,1.338c1.939,1.9,3.859,3.812,5.957,5.889-.213.094-4.165,3.889-5.96,5.645a1.713,1.713,0,0,0-.558,1.337c.021,2.3.008,4.6.008,6.893Zm-14.891-27.206a12.081,12.081,0,1,0,.025,0Z" fill="none" stroke="#0d8f9f" stroke-linecap="round" stroke-linejoin="round" stroke-width="1.25"/>
      <path id="Path_108" data-name="Path 108" d="M797.475,625.585a.128.128,0,0,1,.219-.09l3.161,3.16c.878.878,1.385.882,2.253.012,1.032-1.037,2.063-2.077,3.177-3.194a.13.13,0,0,1,.223.088V644.72a.125.125,0,0,1-.171.121c-.628-.26-2.608-1.109-3.444-1.524a1.871,1.871,0,0,0-1.793-.01c-1.111.535-2.249,1.017-3.444,1.547a.129.129,0,0,1-.182-.115Z" fill="none" stroke="#0d8f9f" stroke-miterlimit="10" stroke-width="1.25"/>
      <path id="Path_110" data-name="Path 110" d="M811.118,623.322V646.45a.348.348,0,0,1-.487.317c-.551-.236-1.083-.46-1.59-.728-.139-.073-.191-.415-.191-.633q-.018-5.883-.008-11.766V623.8a1.365,1.365,0,0,1,1.365-1.368h.022A.888.888,0,0,1,811.118,623.322Z" fill="#0d8f9f"/>
      <path id="Path_110-2" data-name="Path 110" d="M793.649,622.437h.022a1.366,1.366,0,0,1,1.365,1.368v9.835q.009,5.883-.008,11.766c0,.218-.052.56-.191.633-.508.268-1.039.492-1.591.728a.348.348,0,0,1-.486-.317V623.322A.887.887,0,0,1,793.649,622.437Z" fill="#0d8f9f"/>
      <path id="Path_106" data-name="Path 106" d="M812.373,605.543A10.283,10.283,0,1,1,802.149,595.2h.011A10.28,10.28,0,0,1,812.373,605.543Z" fill="none" stroke="#0d8f9f" stroke-linecap="round" stroke-linejoin="round" stroke-width="1.25"/>
    </g>
    <text id="Platinum" transform="translate(13041 8888)" fill="#707070" font-size="14" font-family="SegoeUI, Segoe UI"><tspan x="-27.197" y="0">Platinum</tspan></text>
  </g>
</svg>
