<svg xmlns="http://www.w3.org/2000/svg" width="65.305" height="84" viewBox="0 0 65.305 84">
  <g id="Group_359" data-name="Group 359" transform="translate(-13008 -8482)">
    <g id="Group_108" data-name="Group 108" transform="translate(12242.483 8385.078)">
      <path id="Path_133" data-name="Path 133" d="M825.479,112.941c0,.142,0,.284,0,.426a29.388,29.388,0,0,1-.543,3.24,17.643,17.643,0,0,0-.069,2.7,1.114,1.114,0,0,0,.264.656,24.16,24.16,0,0,0,2.427,2.65,9.033,9.033,0,0,1,3.21,5.03,2.743,2.743,0,0,1,0,1.12,8.451,8.451,0,0,1-3.19,5.032l-.1.074c-2.791,2.353-3.22,3.483-2.291,7.11a8.872,8.872,0,0,1-.354,6.006,2.193,2.193,0,0,1-.515.724,8.673,8.673,0,0,1-5.59,2.234c-.54.021-1.079.094-1.617.16a4.9,4.9,0,0,0-4.087,3.131c-.2.441-.388.882-.593,1.318-.179.381-.377.754-.561,1.134-2.067,4.275-5.191,4.666-9.311,2.472a5.236,5.236,0,0,1-.552-.367,6.045,6.045,0,0,0-7.443-.18,13.185,13.185,0,0,1-3.2,1.5c-2.844.907-4.662.2-6.249-2.339-.541-.865-.956-1.809-1.428-2.716a1.154,1.154,0,0,1-.071-.166c-.958-2.769-3.022-3.91-5.827-3.945a8.5,8.5,0,0,1-5.5-1.988,3.237,3.237,0,0,1-.878-1.181,8,8,0,0,1-.293-5.543,10.118,10.118,0,0,0,.373-3.876,1.574,1.574,0,0,0-.29-.834,21.108,21.108,0,0,0-2.377-2.614c-1.686-1.569-3.858-4.1-3.174-6.611a8.465,8.465,0,0,1,3.1-4.684c.127-.1.253-.2.383-.294,2.436-1.779,2.884-4.14,2.03-6.894a8.274,8.274,0,0,1,.348-6,2.045,2.045,0,0,1,.479-.677,9.091,9.091,0,0,1,5.518-2.275,17.775,17.775,0,0,0,3.4-.7,2.6,2.6,0,0,0,1.27-.929,21.747,21.747,0,0,0,1.462-2.481c.476-.882.845-1.827,1.368-2.678,1.5-2.443,3.312-3.224,6.088-2.512a12.464,12.464,0,0,1,3.117,1.361,11.075,11.075,0,0,0,3.589,1.495,2.354,2.354,0,0,0,1.236-.1,20.86,20.86,0,0,0,3.149-1.46,9.43,9.43,0,0,1,4.881-1.507,4.057,4.057,0,0,1,3.117,1.323,13.993,13.993,0,0,1,2.453,4.053c.025.055.044.112.065.169.964,2.786,3.032,3.947,5.863,3.987a8.777,8.777,0,0,1,5.306,1.862,2.976,2.976,0,0,1,1.187,1.686A12.017,12.017,0,0,1,825.479,112.941Zm-2.838-.23c.02-1.8-.4-2.445-1.775-2.787a16.838,16.838,0,0,0-3.2-.523c-3.525-.183-6.078-1.718-7.412-5.072a5.2,5.2,0,0,0-.233-.555c-.519-.95-.987-1.935-1.588-2.83a1.754,1.754,0,0,0-2.328-.858,1.68,1.68,0,0,0-.172.092c-.965.385-1.869.919-2.814,1.36a24.517,24.517,0,0,1-2.915,1.267,6.724,6.724,0,0,1-2.475.328,11.553,11.553,0,0,1-4.822-1.758,23.216,23.216,0,0,0-3.088-1.3,1.379,1.379,0,0,0-1.745.565,25.851,25.851,0,0,0-1.37,2.261c-.544.983-.958,2.048-1.593,2.964a8.511,8.511,0,0,1-2.059,2.156,8.956,8.956,0,0,1-3.792,1.279,31.336,31.336,0,0,0-3.946.764,1.98,1.98,0,0,0-1.628,2.279c.008.047.017.093.028.139a20.607,20.607,0,0,0,.408,2.86,8.457,8.457,0,0,1-2.871,8.838,3.213,3.213,0,0,0-.318.276c-.767.821-1.574,1.609-2.281,2.478a1.976,1.976,0,0,0-.144,2.252,7.168,7.168,0,0,0,1.3,1.585c.663.673,1.393,1.279,2.05,1.957a8.052,8.052,0,0,1,2.273,3.637,11.116,11.116,0,0,1-.025,4.786,20.776,20.776,0,0,0-.389,3.224,1.771,1.771,0,0,0,1.457,2.037l.043.007a17.359,17.359,0,0,0,3.244.617c3.671.282,6.3,1.964,7.649,5.462a2.6,2.6,0,0,0,.135.335c.522.949.989,1.934,1.588,2.832a1.731,1.731,0,0,0,2.281.892,1.752,1.752,0,0,0,.2-.1c.969-.374,1.883-.891,2.823-1.339a16.9,16.9,0,0,1,2.453-1.13,9.048,9.048,0,0,1,3-.475,10.009,10.009,0,0,1,4.45,1.56,23.109,23.109,0,0,0,2.566,1.323,2,2,0,0,0,2.932-.885,24.876,24.876,0,0,0,1.56-2.983c1.061-2.327,2.425-4.323,5.111-4.952.74-.173,1.5-.282,2.244-.426,1.181-.226,2.381-.383,3.534-.708a1.794,1.794,0,0,0,1.538-2.018c-.006-.043-.013-.087-.022-.129a16.613,16.613,0,0,0-.393-2.981,8.69,8.69,0,0,1,3.107-9.372,19.5,19.5,0,0,0,2.408-2.443,1.75,1.75,0,0,0,.075-2.429,10.517,10.517,0,0,0-1.2-1.43c-.647-.659-1.362-1.251-2.007-1.914a8.1,8.1,0,0,1-2.284-3.632,10.765,10.765,0,0,1,.018-4.785C822.432,114.323,822.547,113.323,822.641,112.711Z" fill="#0d8f9f"/>
      <path id="Path_135" data-name="Path 135" d="M791.839,124.527l4.449-5.034c.226-.256.451-.514.68-.767a1.459,1.459,0,0,1,2.457.028q2.156,2.439,4.3,4.891c.252.286.5.569.789.89l4.254-3.6,2.62-2.224c.794-.67,1.385-.792,2.016-.393a1.631,1.631,0,0,1,.618,1.909c-.709,4.076-1.358,8.161-2.085,12.234a7.128,7.128,0,0,1-7.075,5.893q-6.693.021-13.387,0a7.23,7.23,0,0,1-7.18-6.219c-.644-4.025-1.332-8.044-2-12.064a1.556,1.556,0,0,1,.653-1.789,1.492,1.492,0,0,1,1.869.311q3.268,2.763,6.533,5.535C791.5,124.253,791.653,124.379,791.839,124.527Zm-5.966-1.251a3.441,3.441,0,0,0,0,.476c.444,2.736.862,5.476,1.349,8.2a4.3,4.3,0,0,0,4.254,3.5q6.695.021,13.387,0a4.336,4.336,0,0,0,4.3-3.735c.139-.893.281-1.786.419-2.678.292-1.9.583-3.79.893-5.808-.294.241-.5.4-.691.569q-2.16,1.836-4.316,3.674a1.5,1.5,0,0,1-2.448-.167q-2.081-2.346-4.154-4.7c-.248-.279-.5-.556-.774-.863-.2.214-.347.371-.491.534q-2.258,2.551-4.517,5.1a1.465,1.465,0,0,1-2.313.138q-2.2-1.923-4.4-3.852c-.15-.123-.306-.236-.5-.385Z" fill="#0d8f9f"/>
    </g>
    <text id="Premium" transform="translate(13041 8562)" fill="#707070" font-size="14" font-family="SegoeUI, Segoe UI"><tspan x="-27.73" y="0">Premium</tspan></text>
  </g>
</svg>
