<svg xmlns="http://www.w3.org/2000/svg" width="86" height="84.012" viewBox="0 0 86 84.012">
  <g id="Group_686" data-name="Group 686" transform="translate(-1136.665 -1334.069)">
    <g id="Group_109" data-name="Group 109" transform="translate(133.143 1078.159)">
      <path id="Path_137" data-name="Path 137" d="M1049.508,285.113c-1.071,1.322-2.1,2.548-3.078,3.814a3.468,3.468,0,0,1-2.981,1.451c-2.991-.026-5.984-.016-8.975.053-2.153.049-3.71-1.589-3.077-4.166a2.749,2.749,0,0,1,2.753-2.059q3.8-.037,7.586-.048a1,1,0,0,0,.882-.412c1.321-1.662,2.673-3.3,3.989-4.964a1.128,1.128,0,0,0,.207-.769,3.185,3.185,0,0,1,2.08-3.591q3.334-1.315,6.679-2.6a3.166,3.166,0,0,1,4.186,1.587,3.055,3.055,0,0,1,.114.291q3.4,8.661,6.783,17.332a3.1,3.1,0,0,1-1.15,3.879.788.788,0,0,0-.336.777c0,6.91.013,13.82-.016,20.731a4.321,4.321,0,0,1-.426,1.88,2.911,2.911,0,0,1-2.693,1.6c-.714.017-1.429.008-2.143,0a3.184,3.184,0,0,1-3.308-3.055c0-.091,0-.183,0-.275q-.009-7.671,0-15.345v-3c-.366-.114-.7-.191-1.016-.321a3.154,3.154,0,0,1-1.773-1.879q-2.008-5.141-4.026-10.28C1049.7,285.568,1049.624,285.394,1049.508,285.113Z" fill="none" stroke="#0d8f9f" stroke-miterlimit="10" stroke-width="2"/>
      <path id="Path_138" data-name="Path 138" d="M1041.013,263.992a7.079,7.079,0,1,1,7.081,7.076h-.03A7.066,7.066,0,0,1,1041.013,263.992Z" fill="none" stroke="#0d8f9f" stroke-miterlimit="10" stroke-width="2"/>
      <path id="Path_139" data-name="Path 139" d="M1034.682,292.16h2.627c.012.212.031.4.031.584v26.174c0,.914-.394,1.448-1.134,1.552a1.314,1.314,0,0,1-1.491-1.063,3.363,3.363,0,0,1-.033-.634V292.16Z" fill="#0d8f9f"/>
      <path id="Path_140" data-name="Path 140" d="M1036.8,282.478c-1,0-1.9.009-2.8-.01-.133,0-.269-.127-.39-.213a2.833,2.833,0,0,0-4.534,2.162,1.28,1.28,0,0,1-2.554.167,1.319,1.319,0,0,1,.01-.267,5.363,5.363,0,0,1,10.149-2.236A3.85,3.85,0,0,1,1036.8,282.478Z" fill="#0d8f9f"/>
    </g>
    <text id="Senior_Citizen" data-name="Senior Citizen" transform="translate(1179.665 1414.081)" fill="#707070" font-size="14" font-family="SegoeUI, Segoe UI"><tspan x="-42.373" y="0">Senior Citizen</tspan></text>
  </g>
</svg>
