<svg xmlns="http://www.w3.org/2000/svg" width="43.979" height="84.625" viewBox="0 0 43.979 84.625">
  <g id="Group_362" data-name="Group 362" transform="translate(-13019.375 -8970.375)">
    <g id="Group_21" data-name="Group 21" transform="translate(12239.355 8548.076)">
      <path id="Path_107" data-name="Path 107" d="M816.866,458.727h-.754c-2.3,0-4.6.011-6.894-.008a1.883,1.883,0,0,0-1.457.6c-1.738,1.755-3.5,3.485-5.256,5.224-.156.154-.318.3-.51.485-.182-.167-.346-.309-.5-.461-1.755-1.737-3.519-3.467-5.256-5.223a1.943,1.943,0,0,0-1.508-.625c-2.3.023-4.6.009-6.894.009h-.726v-.711c0-2.318-.01-4.635.008-6.953a1.66,1.66,0,0,0-.537-1.286c-1.793-1.757-5.734-5.585-5.937-5.708,1.793-1.776,3.423-3.5,5.174-5.084a3.654,3.654,0,0,0,1.322-3.162c-.109-2.15-.03-4.308-.03-6.534.242-.01.456-.03.67-.03,2.339,0,4.677-.01,7.016,0a1.77,1.77,0,0,0,1.355-.553c1.915-1.921,3.846-3.826,5.82-5.783.176.164.336.3.488.456,1.784,1.766,3.574,3.527,5.344,5.307a1.831,1.831,0,0,0,1.407.575c2.521-.016,5.042-.007,7.656-.007v.67c0,2.318.012,4.636-.008,6.953a1.722,1.722,0,0,0,.558,1.338c1.939,1.9,3.859,3.812,5.957,5.889-.213.094-4.165,3.889-5.96,5.645a1.713,1.713,0,0,0-.558,1.337c.021,2.3.008,4.6.008,6.893Zm-14.891-27.206a12.094,12.094,0,1,0,.025,0Z" fill="none" stroke="#0d8f9f" stroke-linecap="round" stroke-linejoin="round" stroke-width="1.25"/>
      <path id="Path_108" data-name="Path 108" d="M797.475,464.094a.128.128,0,0,1,.219-.09l3.161,3.16c.878.878,1.385.882,2.253.012,1.032-1.037,2.063-2.077,3.177-3.194a.13.13,0,0,1,.223.088v19.159a.125.125,0,0,1-.171.121c-.628-.26-2.608-1.109-3.444-1.524a1.871,1.871,0,0,0-1.793-.01c-1.111.535-2.249,1.017-3.444,1.547a.129.129,0,0,1-.182-.115Z" fill="none" stroke="#0d8f9f" stroke-miterlimit="10" stroke-width="1.25"/>
      <path id="Path_110" data-name="Path 110" d="M811.118,461.831v23.128a.348.348,0,0,1-.487.317c-.551-.236-1.083-.46-1.59-.728-.139-.073-.191-.415-.191-.633q-.018-5.883-.008-11.766v-9.835a1.365,1.365,0,0,1,1.365-1.368h.022A.888.888,0,0,1,811.118,461.831Z" fill="#0d8f9f"/>
      <path id="Path_110-2" data-name="Path 110" d="M793.649,460.946h.022a1.366,1.366,0,0,1,1.365,1.368v9.835q.009,5.883-.008,11.766c0,.218-.052.56-.191.633-.508.268-1.039.492-1.591.728a.347.347,0,0,1-.486-.317V461.831A.887.887,0,0,1,793.649,460.946Z" fill="#0d8f9f"/>
    </g>
    <text id="Silver" transform="translate(13041 9051)" fill="#707070" font-size="14" font-family="SegoeUI, Segoe UI"><tspan x="-16.557" y="0">Silver</tspan></text>
  </g>
</svg>
