<svg xmlns="http://www.w3.org/2000/svg" width="72.562" height="83.999" viewBox="0 0 72.562 83.999">
  <g id="Group_394" data-name="Group 394" transform="translate(-291 -267.001)">
    <g id="Group_24" data-name="Group 24" transform="translate(-721.295 169.515)">
      <path id="Path_119" data-name="Path 119" d="M1048.575,97.5c7.146,0,14.293.012,21.44-.011a3.154,3.154,0,0,1,2.841,1.46q5.628,8.129,11.307,16.223a2.632,2.632,0,0,1-.14,3.7q-16.666,20.057-33.337,40.111a2.623,2.623,0,0,1-4.233-.01q-16.693-20.08-33.381-40.166a2.609,2.609,0,0,1-.123-3.588c3.8-5.444,7.612-10.877,11.388-16.337a2.968,2.968,0,0,1,2.655-1.388Q1037.784,97.515,1048.575,97.5Zm-12.566,22.027,12.566,36.857,12.6-36.857Zm-17.956-.034,24.778,29.794a.329.329,0,0,0,.033-.3q-5.594-14.465-11.177-28.936c-.195-.509-.5-.567-.954-.565-3.966.012-7.933.005-11.9.005Zm61.043,0h-.887c-3.914,0-7.827.014-11.74-.015a.973.973,0,0,0-1.083.75q-5.467,14.208-10.98,28.4c-.077.2-.133.4-.2.606l.113.046Zm-17.141-3.445-13.382-14.9-13.377,14.9Zm-29.438-2.151,11.164-12.482h-16.007Zm20.619-12.748,11.657,12.987,5-12.987Zm-24.039,14.9-4.517-11.635-8.109,11.635Zm43.468-11.654-4.512,11.654h12.633Z" transform="translate(0)" fill="#0d8f9f"/>
    </g>
    <text id="Solitaire" transform="translate(327 347)" fill="#707070" font-size="14" font-family="SegoeUI, Segoe UI"><tspan x="-24.934" y="0">Solitaire</tspan></text>
  </g>
</svg>
